<?xml version="1.0" encoding="UTF-8" standalone="no"?>
<!DOCTYPE svg PUBLIC "-//W3C//DTD SVG 1.1//EN"
 "http://www.w3.org/Graphics/SVG/1.1/DTD/svg11.dtd">
<!-- Generated by graphviz version 2.47.0 (20210316.0004)
 -->
<!-- Title: dependencies Pages: 1 -->
<svg width="903pt" height="284pt"
 viewBox="0.00 0.00 903.00 284.00" xmlns="http://www.w3.org/2000/svg" xmlns:xlink="http://www.w3.org/1999/xlink">
<g id="graph0" class="graph" transform="scale(1 1) rotate(0) translate(4 280)">
<title>dependencies</title>
<polygon fill="white" stroke="transparent" points="-4,4 -4,-280 899,-280 899,4 -4,4"/>
<text text-anchor="start" x="426.51" y="-42.4" font-family="Times-12" font-weight="bold" font-size="14.00">Legend</text>
<polygon fill="#ffffb3" stroke="transparent" points="213.5,-10 213.5,-30 233.5,-30 233.5,-10 213.5,-10"/>
<text text-anchor="start" x="237.13" y="-15.4" font-family="Times-12" font-size="14.00"> &#160;Declarations</text>
<polygon fill="#8dd3c7" stroke="transparent" points="326.5,-10 326.5,-30 346.5,-30 346.5,-10 326.5,-10"/>
<text text-anchor="start" x="350.23" y="-15.4" font-family="Times-12" font-size="14.00"> &#160;Module</text>
<polygon fill="#80b1d3" stroke="transparent" points="412.5,-10 412.5,-30 432.5,-30 432.5,-10 412.5,-10"/>
<text text-anchor="start" x="436.28" y="-15.4" font-family="Times-12" font-size="14.00"> &#160;Bootstrap</text>
<polygon fill="#fdb462" stroke="transparent" points="509.5,-10 509.5,-30 529.5,-30 529.5,-10 509.5,-10"/>
<text text-anchor="start" x="533.17" y="-15.4" font-family="Times-12" font-size="14.00"> &#160;Providers</text>
<polygon fill="#fb8072" stroke="transparent" points="605.5,-10 605.5,-30 625.5,-30 625.5,-10 605.5,-10"/>
<text text-anchor="start" x="629.23" y="-15.4" font-family="Times-12" font-size="14.00"> &#160;Exports</text>
<g id="clust1" class="cluster">
<title>cluster_AppModule</title>
<polygon fill="none" stroke="black" stroke-dasharray="1,5" points="8,-70 8,-268 887,-268 887,-70 8,-70"/>
</g>
<g id="clust8" class="cluster">
<title>cluster_AppModule_imports</title>
<polygon fill="none" stroke="black" points="735,-78 735,-130 879,-130 879,-78 735,-78"/>
</g>
<g id="clust10" class="cluster">
<title>cluster_AppModule_bootstrap</title>
<polygon fill="none" stroke="black" points="389,-208 389,-260 513,-260 513,-208 389,-208"/>
</g>
<g id="clust2" class="cluster">
<title>cluster_AppModule_declarations</title>
<polygon fill="none" stroke="black" points="16,-78 16,-130 727,-130 727,-78 16,-78"/>
</g>
<!-- AppComponent -->
<g id="node1" class="node">
<title>AppComponent</title>
<polygon fill="#ffffb3" stroke="black" points="718.94,-122 613.06,-122 613.06,-86 718.94,-86 718.94,-122"/>
<text text-anchor="middle" x="666" y="-99.8" font-family="Times,serif" font-size="14.00">AppComponent</text>
</g>
<!-- AppModule -->
<g id="node6" class="node">
<title>AppModule</title>
<polygon fill="#8dd3c7" stroke="black" points="492.66,-187 489.66,-191 468.66,-191 465.66,-187 409.34,-187 409.34,-151 492.66,-151 492.66,-187"/>
<text text-anchor="middle" x="451" y="-164.8" font-family="Times,serif" font-size="14.00">AppModule</text>
</g>
<!-- AppComponent&#45;&gt;AppModule -->
<g id="edge1" class="edge">
<title>AppComponent&#45;&gt;AppModule</title>
<path fill="none" stroke="black" d="M666,-122.02C666,-139.37 666,-163 666,-163 666,-163 502.71,-163 502.71,-163"/>
<polygon fill="black" stroke="black" points="502.71,-159.5 492.71,-163 502.71,-166.5 502.71,-159.5"/>
</g>
<!-- HomepageComponent -->
<g id="node2" class="node">
<title>HomepageComponent</title>
<polygon fill="#ffffb3" stroke="black" points="594.97,-122 453.03,-122 453.03,-86 594.97,-86 594.97,-122"/>
<text text-anchor="middle" x="524" y="-99.8" font-family="Times,serif" font-size="14.00">HomepageComponent</text>
</g>
<!-- HomepageComponent&#45;&gt;AppModule -->
<g id="edge2" class="edge">
<title>HomepageComponent&#45;&gt;AppModule</title>
<path fill="none" stroke="black" d="M472.92,-122.11C472.92,-122.11 472.92,-140.99 472.92,-140.99"/>
<polygon fill="black" stroke="black" points="469.42,-140.99 472.92,-150.99 476.42,-140.99 469.42,-140.99"/>
</g>
<!-- LoginComponent -->
<g id="node3" class="node">
<title>LoginComponent</title>
<polygon fill="#ffffb3" stroke="black" points="435.28,-122 320.72,-122 320.72,-86 435.28,-86 435.28,-122"/>
<text text-anchor="middle" x="378" y="-99.8" font-family="Times,serif" font-size="14.00">LoginComponent</text>
</g>
<!-- LoginComponent&#45;&gt;AppModule -->
<g id="edge3" class="edge">
<title>LoginComponent&#45;&gt;AppModule</title>
<path fill="none" stroke="black" d="M422.28,-122.11C422.28,-122.11 422.28,-140.99 422.28,-140.99"/>
<polygon fill="black" stroke="black" points="418.78,-140.99 422.28,-150.99 425.78,-140.99 418.78,-140.99"/>
</g>
<!-- LogoComponent -->
<g id="node4" class="node">
<title>LogoComponent</title>
<polygon fill="#ffffb3" stroke="black" points="302.39,-122 191.61,-122 191.61,-86 302.39,-86 302.39,-122"/>
<text text-anchor="middle" x="247" y="-99.8" font-family="Times,serif" font-size="14.00">LogoComponent</text>
</g>
<!-- LogoComponent&#45;&gt;AppModule -->
<g id="edge4" class="edge">
<title>LogoComponent&#45;&gt;AppModule</title>
<path fill="none" stroke="black" d="M247,-122.02C247,-139.37 247,-163 247,-163 247,-163 399.23,-163 399.23,-163"/>
<polygon fill="black" stroke="black" points="399.23,-166.5 409.23,-163 399.23,-159.5 399.23,-166.5"/>
</g>
<!-- RegistrationComponent -->
<g id="node5" class="node">
<title>RegistrationComponent</title>
<polygon fill="#ffffb3" stroke="black" points="173.77,-122 24.23,-122 24.23,-86 173.77,-86 173.77,-122"/>
<text text-anchor="middle" x="99" y="-99.8" font-family="Times,serif" font-size="14.00">RegistrationComponent</text>
</g>
<!-- RegistrationComponent&#45;&gt;AppModule -->
<g id="edge5" class="edge">
<title>RegistrationComponent&#45;&gt;AppModule</title>
<path fill="none" stroke="black" d="M99,-122.28C99,-143.32 99,-175 99,-175 99,-175 399.24,-175 399.24,-175"/>
<polygon fill="black" stroke="black" points="399.24,-178.5 409.24,-175 399.24,-171.5 399.24,-178.5"/>
</g>
<!-- AppComponent  -->
<g id="node8" class="node">
<title>AppComponent </title>
<polygon fill="#80b1d3" stroke="black" points="505.44,-252 396.56,-252 396.56,-216 505.44,-216 505.44,-252"/>
<text text-anchor="middle" x="451" y="-229.8" font-family="Times,serif" font-size="14.00">AppComponent </text>
</g>
<!-- AppModule&#45;&gt;AppComponent  -->
<g id="edge7" class="edge">
<title>AppModule&#45;&gt;AppComponent </title>
<path fill="none" stroke="black" stroke-dasharray="1,5" d="M451,-187.11C451,-187.11 451,-205.99 451,-205.99"/>
<polygon fill="black" stroke="black" points="447.5,-205.99 451,-215.99 454.5,-205.99 447.5,-205.99"/>
</g>
<!-- AppRoutingModule -->
<g id="node7" class="node">
<title>AppRoutingModule</title>
<polygon fill="#8dd3c7" stroke="black" points="871.27,-122 868.27,-126 847.27,-126 844.27,-122 742.73,-122 742.73,-86 871.27,-86 871.27,-122"/>
<text text-anchor="middle" x="807" y="-99.8" font-family="Times,serif" font-size="14.00">AppRoutingModule</text>
</g>
<!-- AppRoutingModule&#45;&gt;AppModule -->
<g id="edge6" class="edge">
<title>AppRoutingModule&#45;&gt;AppModule</title>
<path fill="none" stroke="black" d="M807,-122.28C807,-143.32 807,-175 807,-175 807,-175 502.88,-175 502.88,-175"/>
<polygon fill="black" stroke="black" points="502.88,-171.5 492.88,-175 502.88,-178.5 502.88,-171.5"/>
</g>
</g>
</svg>
